GRF
version=1
nRows=21
nColumns=19
inDegrees=no
endheader
time	ground_force_vx	ground_force_vy	ground_force_vz	ground_force_px	ground_force_py	ground_force_pz	ground_torque_x	ground_torque_y	ground_torque_z	1_ground_force_vx	1_ground_force_vy	1_ground_force_vz	1_ground_force_px	1_ground_force_py	1_ground_force_pz	1_ground_torque_x	1_ground_torque_y	1_ground_torque_z
      3.50000000	    -46.14146093	    350.94345963	      9.17379953	      0.19334834	     -0.00000000	     -0.09159804	     -0.00000000	     -0.10201728	      0.00000000	     50.04699837	    362.43233089	    -15.82690582	     -0.25379399	      0.00000000	     -0.02948718	      0.00000000	      1.76327857	     -0.00000000
      3.50100000	    -46.12616940	    350.87861199	      9.17052489	      0.19334284	     -0.00000000	     -0.09159788	     -0.00000000	     -0.10521448	      0.00000000	     50.08582752	    362.49619868	    -15.93026295	     -0.25379336	      0.00000000	     -0.02945339	      0.00000000	      1.76113929	     -0.00000000
      3.50200000	    -46.11037462	    350.81255165	      9.16695997	      0.19333725	     -0.00000000	     -0.09159788	     -0.00000000	     -0.10807426	      0.00000000	     50.12391838	    362.56332081	    -16.02737225	     -0.25379140	      0.00000000	     -0.02942467	      0.00000000	      1.75871397	     -0.00000000
      3.50300000	    -46.09409143	    350.74530112	      9.16312268	      0.19333161	     -0.00000000	     -0.09159801	     -0.00000000	     -0.11058693	      0.00000000	     50.16117831	    362.63360447	    -16.11809004	     -0.25378813	      0.00000000	     -0.02940110	      0.00000000	      1.75600918	     -0.00000000
      3.50400000	    -46.07733398	    350.67688301	      9.15903077	      0.19332591	     -0.00000000	     -0.09159824	     -0.00000000	     -0.11274464	      0.00000000	     50.19751768	    362.70695160	    -16.20227981	     -0.25378359	      0.00000000	     -0.02938273	      0.00000000	      1.75303253	     -0.00000000
      3.50500000	    -46.06011550	    350.60732003	      9.15470186	      0.19332019	     -0.00000000	     -0.09159854	     -0.00000000	     -0.11454140	      0.00000000	     50.23285037	    362.78325936	    -16.27981243	     -0.25377781	      0.00000000	     -0.02936963	      0.00000000	      1.74979265	     -0.00000000
      3.50600000	    -46.04244815	    350.53663492	      9.15015346	      0.19331445	     -0.00000000	     -0.09159887	     -0.00000000	     -0.11597318	      0.00000000	     50.26709421	    362.86242046	    -16.35056626	     -0.25377080	      0.00000000	     -0.02936186	      0.00000000	      1.74629916	     -0.00000000
      3.50700000	    -46.02434291	    350.46485050	      9.14540298	      0.19330872	     -0.00000000	     -0.09159920	     -0.00000000	     -0.11703791	      0.00000000	     50.30017132	    362.94432358	    -16.41442733	     -0.25376260	      0.00000000	     -0.02935945	      0.00000000	      1.74256257	     -0.00000000
      3.50800000	    -46.00580944	    350.39198957	      9.14046778	      0.19330301	     -0.00000000	     -0.09159949	     -0.00000000	     -0.11773550	      0.00000000	     50.33200847	    363.02885364	    -16.47128938	     -0.25375325	      0.00000000	     -0.02936246	      0.00000000	      1.73859424	     -0.00000000
      3.50900000	    -45.98685602	    350.31807497	      9.13536519	      0.19329734	     -0.00000000	     -0.09159971	     -0.00000000	     -0.11806787	      0.00000000	     50.36253734	    363.11589217	    -16.52105399	     -0.25374276	      0.00000000	     -0.02937092	      0.00000000	      1.73440638	     -0.00000000
      3.51000000	    -45.96748949	    350.24312949	      9.13011257	      0.19329174	     -0.00000000	     -0.09159982	     -0.00000000	     -0.11803891	      0.00000000	     50.39169475	    363.20531753	    -16.56363060	     -0.25373118	      0.00000000	     -0.02938487	      0.00000000	      1.73001192	     -0.00000000
      3.51100000	    -45.94771524	    350.16717590	      9.12472734	      0.19328621	     -0.00000000	     -0.09159978	     -0.00000000	     -0.11765448	      0.00000000	     50.41942275	    363.29700515	    -16.59893654	     -0.25371852	      0.00000000	     -0.02940432	      0.00000000	      1.72542452	     -0.00000000
      3.51200000	    -45.92753723	    350.09023692	      9.11922702	      0.19328079	     -0.00000000	     -0.09159957	     -0.00000000	     -0.11692235	      0.00000000	     50.44566881	    363.39082772	    -16.62689707	     -0.25370482	      0.00000000	     -0.02942929	      0.00000000	      1.72065849	     -0.00000000
      3.51300000	    -45.90695800	    350.01233520	      9.11362928	      0.19327548	     -0.00000000	     -0.09159915	     -0.00000000	     -0.11585217	      0.00000000	     50.47038577	    363.48665540	    -16.64744532	     -0.25369010	      0.00000000	     -0.02945981	      0.00000000	      1.71572872	     -0.00000000
      3.51400000	    -45.88597878	    349.93349331	      9.10795194	      0.19327030	     -0.00000000	     -0.09159849	     -0.00000000	     -0.11445542	      0.00000000	     50.49353185	    363.58435589	    -16.66052231	     -0.25367439	      0.00000000	     -0.02949586	      0.00000000	      1.71065069	     -0.00000000
      3.51500000	    -45.86459960	    349.85373374	      9.10221301	      0.19326527	     -0.00000000	     -0.09159757	     -0.00000000	     -0.11274526	      0.00000000	     50.51507057	    363.68379454	    -16.66607686	     -0.25365772	      0.00000000	     -0.02953746	      0.00000000	      1.70544034	     -0.00000000
      3.51600000	    -45.84281936	    349.77307888	      9.09643071	      0.19326041	     -0.00000000	     -0.09159635	     -0.00000000	     -0.11073653	      0.00000000	     50.53497061	    363.78483445	    -16.66406558	     -0.25364010	      0.00000000	     -0.02958458	      0.00000000	      1.70011408	     -0.00000000
      3.51700000	    -45.82063606	    349.69155101	      9.09062344	      0.19325572	     -0.00000000	     -0.09159481	     -0.00000000	     -0.10844557	      0.00000000	     50.55320562	    363.88733649	    -16.65445275	     -0.25362157	      0.00000000	     -0.02963723	      0.00000000	      1.69468870	     -0.00000000
      3.51800000	    -45.79804695	    349.60917234	      9.08480975	      0.19325123	     -0.00000000	     -0.09159294	     -0.00000000	     -0.10589014	      0.00000000	     50.56975403	    363.99115930	    -16.63721029	     -0.25360213	      0.00000000	     -0.02969538	      0.00000000	      1.68918133	     -0.00000000
      3.51900000	    -45.77504872	    349.52596494	      9.07900835	      0.19324695	     -0.00000000	     -0.09159072	     -0.00000000	     -0.10308928	      0.00000000	     50.58459872	    364.09615932	    -16.61231765	     -0.25358182	      0.00000000	     -0.02975900	      0.00000000	      1.68360942	     -0.00000000
      3.52000000	    -45.75163773	    349.44195081	      9.07323803	      0.19324289	     -0.00000000	     -0.09158813	     -0.00000000	     -0.10006320	      0.00000000	     50.59772680	    364.20219073	    -16.57976172	     -0.25356064	      0.00000000	     -0.02982806	      0.00000000	      1.67799062	     -0.00000000
